<svg xmlns="http://www.w3.org/2000/svg" width="100" height="100" viewBox="0 0 100 100"><defs><style>path{fill:#f8f8f8}</style></defs><path d="M-58.892 65.561l124.45-124.45 2.83 2.828-124.452 124.45z"/><path d="M-58.892 65.561l124.45-124.45 2.83 2.828-124.452 124.45zm5.65 5.65L71.21-53.239l2.828 2.828-124.45 124.45zm5.665 5.66l124.45-124.45 2.829 2.828-124.45 124.45zm5.664 5.66l124.45-124.45 2.83 2.828-124.451 124.45zm5.64 5.65L88.178-36.269l2.829 2.828-124.451 124.45zm5.665 5.66l124.45-124.45 2.83 2.828L-27.78 96.669zm5.664 5.66L99.507-24.949l2.829 2.828-124.451 124.45zm5.641 5.65l124.45-124.45 2.829 2.828-124.451 124.45zm5.664 5.66l124.45-124.45 2.83 2.828-124.452 124.45zm5.665 5.66l124.45-124.45 2.829 2.828-124.451 124.45zm5.64 5.65l124.45-124.45 2.829 2.828L.495 124.949zm5.664 5.66L127.781 3.331l2.828 2.828L6.16 130.609zm5.665 5.66l124.45-124.45 2.829 2.828-124.45 124.45zm5.64 5.65l124.45-124.45 2.83 2.828-124.452 124.45zm5.665 5.66l124.45-124.45 2.829 2.828-124.451 124.45zm5.664 5.66l124.45-124.45 2.83 2.828-124.452 124.45zm5.64 5.65l124.451-124.45 2.828 2.828-124.45 124.45z"/></svg>