<?xml version="1.0" encoding="UTF-8" standalone="no"?>
<svg width="100px" height="213px" viewBox="0 0 100 213" version="1.1" xmlns="http://www.w3.org/2000/svg" xmlns:xlink="http://www.w3.org/1999/xlink" xmlns:sketch="http://www.bohemiancoding.com/sketch/ns">
    <!-- Generator: Sketch 3.4.2 (15857) - http://www.bohemiancoding.com/sketch -->
    <title>Page 1</title>
    <desc>Created with Sketch.</desc>
    <defs></defs>
    <g id="Page-1" stroke="none" stroke-width="1" fill="none" fill-rule="evenodd" sketch:type="MSPage">
        <path d="M97.2302022,59.7082767 C89.8727726,54.1754831 21.3809171,2.79041854 12.1598707,0.134743921 C4.378628,-2.10458196 11.1040701,24.1685163 18.770029,34.274511 L65.816607,80.0214506 L65.9211088,157.110659 L50.0359946,172.479899 L33.9808574,157.315516 L33.8547916,87.9635931 L11.5237363,64.7368074 C11.5237363,64.7368074 0.0277007532,51.1175592 0.0277007532,70.6992199 L0.0277007532,159.102829 C0.0277007532,159.102829 -0.910327976,166.232179 8.13074292,175.833082 L39.1959985,206.859357 C39.1959985,206.859357 48.9719001,219.289274 60.8793081,206.859357 C73.2246287,193.970792 91.8831896,175.893627 91.8831896,175.893627 C91.8831896,175.893627 99.7208302,169.62849 99.7208302,159.616216 C99.7208302,149.6056 99.9538859,70.0854788 99.9538859,70.0854788 C99.9538859,70.0854788 100.490495,62.7487837 97.880436,60.2034166 C97.6681148,59.996901 97.459111,59.8368306 97.2302022,59.7082767 Z" fill="#FFFFFF" sketch:type="MSShapeGroup"></path>
    </g>
</svg>
