<svg xmlns="http://www.w3.org/2000/svg" width="100" height="100" viewBox="0 0 100 100">
  <defs><style>rect{fill:#f8f8f8;}</style></defs>
  <rect x="-83.25" y="2.75" width="176" height="4" transform="translate(-1.97 4.75) rotate(-45)"/>
  <rect x="-83.25" y="2.75" width="176" height="4" transform="translate(-1.97 4.75) rotate(-45)"/>
  <rect x="-77.6" y="8.4" width="176" height="4" transform="translate(-4.31 10.4) rotate(-45)"/>
  <rect x="-71.94" y="14.06" width="176" height="4" transform="translate(-6.65 16.06) rotate(-45)"/>
  <rect x="-66.28" y="19.72" width="176" height="4" transform="translate(-8.99 21.72) rotate(-45)"/>
  <rect x="-60.63" y="25.37" width="176" height="4" transform="translate(-11.34 27.37) rotate(-45)"/>
  <rect x="-54.97" y="31.03" width="176" height="4" transform="translate(-13.68 33.03) rotate(-45)"/>
  <rect x="-49.31" y="36.69" width="176" height="4" transform="translate(-16.02 38.69) rotate(-45)"/>
  <rect x="-43.66" y="42.34" width="176" height="4" transform="translate(-18.37 44.34) rotate(-45)"/>
  <rect x="-38" y="48" width="176" height="4" transform="translate(-20.71 50) rotate(-45)"/>
  <rect x="-32.34" y="53.66" width="176" height="4" transform="translate(-23.05 55.66) rotate(-45)"/>
  <rect x="-26.69" y="59.31" width="176" height="4" transform="translate(-25.4 61.31) rotate(-45)"/>
  <rect x="-21.03" y="64.97" width="176" height="4" transform="translate(-27.74 66.97) rotate(-45)"/>
  <rect x="-15.37" y="70.63" width="176" height="4" transform="translate(-30.08 72.63) rotate(-45)"/>
  <rect x="-9.72" y="76.28" width="176" height="4" transform="translate(-32.43 78.28) rotate(-45)"/>
  <rect x="-4.06" y="81.94" width="176" height="4" transform="translate(-34.77 83.94) rotate(-45)"/>
  <rect x="1.6" y="87.6" width="176" height="4" transform="translate(-37.11 89.6) rotate(-45)"/>
  <rect x="7.25" y="93.25" width="176" height="4" transform="translate(-39.46 95.25) rotate(-45)"/>
</svg>
